<svg xmlns="http://www.w3.org/2000/svg"
     width="822" height="822"
     viewBox="216 224 822 822">
  <title>GMDN monogram — tightly cropped square</title>
  <path d="M 506 439 L 506 972 L 630 1046 L 750 972 L 750 439 L 686 478 L 686 705 L 573 481 Z M 572 612 L 686 835 L 686 936 L 629 971 L 571 936 Z M 870 310 L 870 390 L 969 456 L 968 759 L 844 835 L 844 504 L 776 544 L 776 957 L 1035 796 L 1035 420 Z M 383 309 L 219 421 L 219 796 L 480 955 L 480 523 L 342 607 L 342 684 L 407 646 L 415 644 L 415 836 L 287 760 L 287 455 L 384 390 Z M 409 283 L 409 468 L 479 511 L 480 311 L 491 303 L 629 391 L 765 303 L 776 310 L 776 512 L 844 473 L 844 279 L 762 224 L 629 310 L 498 224 Z"
        fill="#000000"
        fill-rule="evenodd"
        clip-rule="evenodd"/>
</svg>
